<?xml version="1.0" encoding="UTF-8"?>
<svg id="Layer_1" xmlns="http://www.w3.org/2000/svg" version="1.1" viewBox="0 0 401 401.5">
  <!-- Generator: Adobe Illustrator 29.1.0, SVG Export Plug-In . SVG Version: 2.1.0 Build 142)  -->
  <defs>
    <style>
      .st0 {
        fill: #fff;
      }

      .st1 {
        fill: #2b2b2b;
      }
    </style>
  </defs>
  <polygon class="st1" points="187.92 47.03 222.56 9.22 247.7 53.91 294.18 32.24 300.3 83.16 351.53 80.92 337.71 130.3 385.89 147.84 354.22 188.17 392.03 222.81 347.34 247.95 369.01 294.43 318.09 300.55 320.33 351.78 270.95 337.96 253.41 386.14 213.08 354.47 178.44 392.28 153.3 347.59 106.82 369.26 100.7 318.34 49.47 320.58 63.29 271.2 15.11 253.66 46.78 213.33 8.97 178.69 53.66 153.55 31.99 107.07 82.91 100.95 80.67 49.72 130.05 63.54 147.59 15.36 187.92 47.03"/>
  <g>
    <path class="st0" d="M87.15,252.14l-6.96-84.99,23.07-1.89,2.72,33.2,30.55-2.5-2.72-33.2,23.07-1.89,6.96,84.99-23.07,1.89-2.72-33.2-30.55,2.5,2.72,33.2-23.07,1.89Z"/>
    <path class="st0" d="M167.33,245.58l-6.96-84.99,61.26-5.01,1.52,18.59-38.18,3.12,1.2,14.61,35.03-2.87,1.52,18.59-35.03,2.87,1.2,14.61,38.02-3.11,1.52,18.59-61.09,5Z"/>
    <path class="st0" d="M260.63,152.38l22.74-1.86,4.77,58.27c.43,5.54-.57,10.51-2.98,14.93-2.41,4.42-5.93,7.99-10.57,10.73-4.64,2.73-10.1,4.36-16.38,4.87-5.45.45-10.51-.09-15.17-1.62-4.67-1.53-8.51-4.22-11.52-8.08-3.02-3.86-4.78-9.06-5.29-15.59l23.07-1.89c.26,2.12.77,3.89,1.54,5.31.77,1.41,1.77,2.44,3.01,3.07,1.24.64,2.7.89,4.39.75s3.13-.63,4.25-1.48c1.11-.84,1.92-2.03,2.4-3.56.49-1.53.66-3.39.5-5.58l-4.77-58.27Z"/>
    <path class="st0" d="M309.18,235.31c-3.21.26-6.05-.64-8.51-2.71-2.47-2.07-3.82-4.72-4.06-7.96-.29-3.15.62-5.94,2.72-8.37,2.1-2.43,4.75-3.77,7.96-4.04,3.04-.25,5.83.65,8.35,2.7,2.52,2.05,3.93,4.65,4.21,7.8.15,2.16-.25,4.16-1.2,6.01-.95,1.85-2.25,3.36-3.91,4.54-1.66,1.18-3.51,1.85-5.56,2.02ZM313.74,148.03l2.62,58.61-18.92,1.55-6.94-58.26,23.24-1.9Z"/>
  </g>
</svg>